<?xml version="1.0" encoding="utf-8"?>
<!-- Generator: Adobe Illustrator 24.2.1, SVG Export Plug-In . SVG Version: 6.00 Build 0)  -->
<svg version="1.1" id="Layer_1" xmlns="http://www.w3.org/2000/svg" xmlns:xlink="http://www.w3.org/1999/xlink" x="0px" y="0px"
	 viewBox="0 0 1366 768" style="enable-background:new 0 0 1366 768;" xml:space="preserve">
<style type="text/css">
	.st0{fill:#FF7F4D;}
	.st1{fill:#FFB07B;}
</style>
<g>
	<path class="st0" d="M780.55,439.91l-4.8,3.06c-7.94,5.06-17.84,5.95-26.56,2.39l-5.27-2.16c-10.03-4.1-16.93-13.45-17.9-24.24v0
		c-0.97-10.79,4.16-21.22,13.29-27.04l4.8-3.06c7.94-5.06,17.84-5.95,26.56-2.39l5.27,2.16c10.03,4.1,16.93,13.45,17.9,24.24v0
		C794.81,423.66,789.69,434.09,780.55,439.91z"/>
</g>
<g>
	<path class="st0" d="M706.8,360.35l-4.8,3.06c-7.94,5.06-17.84,5.95-26.56,2.39l-5.27-2.16c-10.03-4.1-16.93-13.45-17.9-24.24v0
		c-0.97-10.79,4.16-21.22,13.29-27.04l4.8-3.06c7.94-5.06,17.84-5.95,26.56-2.39l5.27,2.16c10.03,4.1,16.93,13.45,17.9,24.24v0
		C721.07,344.1,715.94,354.53,706.8,360.35z"/>
</g>
<g>
	<path class="st1" d="M318.8,322.35l-4.8,3.06c-7.94,5.06-17.84,5.95-26.56,2.39l-5.27-2.16c-10.03-4.1-16.93-13.45-17.9-24.24v0
		c-0.97-10.79,4.16-21.22,13.29-27.04l4.8-3.06c7.94-5.06,17.84-5.95,26.56-2.39l5.27,2.16c10.03,4.1,16.93,13.45,17.9,24.24v0
		C333.07,306.1,327.94,316.53,318.8,322.35z"/>
</g>
</svg>
