<?xml version="1.0" encoding="utf-8"?>
<!-- Generator: Adobe Illustrator 24.2.1, SVG Export Plug-In . SVG Version: 6.00 Build 0)  -->
<svg version="1.1" id="Layer_1" xmlns="http://www.w3.org/2000/svg" xmlns:xlink="http://www.w3.org/1999/xlink" x="0px" y="0px"
	 viewBox="0 0 1366 768" style="enable-background:new 0 0 1366 768;" xml:space="preserve">
<style type="text/css">
	.st0{opacity:0.74;}
	.st1{fill:#FF7F4D;}
	.st2{fill:#FFB07B;}
</style>
<g class="st0">
	<path class="st1" d="M926.45,482.85l-109.53,47.19c-3.99,1.72-8.31,2.52-12.65,2.34l-119.16-4.85
		c-13.52-0.55-24.86-10.38-27.33-23.69l-3.62-19.53c-2.46-13.31,4.61-26.55,17.04-31.9l109.53-47.19c3.99-1.72,8.31-2.52,12.65-2.34
		l119.16,4.85c13.52,0.55,24.86,10.38,27.33,23.69l3.62,19.53C945.95,464.25,938.88,477.49,926.45,482.85z"/>
</g>
<g>
	<path class="st2" d="M217.56,349.85l-67.66,30.11c-8.14,3.62-17.49,3.3-25.36-0.87L59.1,344.44c-9.8-5.19-15.79-15.52-15.41-26.61
		l1.94-56.72c0.38-11.09,7.05-20.99,17.19-25.5l67.66-30.11c8.14-3.62,17.49-3.3,25.36,0.87l65.45,34.66
		c9.8,5.19,15.79,15.52,15.41,26.61l-1.94,56.72C234.37,335.44,227.7,345.34,217.56,349.85z"/>
</g>
</svg>
